:SAMPLES-PER-SECOND 30
:FULLY-SPECIFIED
:DEGREES
16
root  0.772008 40.6861 -2.4716 -168.255 -83.1348 163.364
RightUpLeg  3.54219 -11.5282 -10.0237
RightLeg  9.71796 3.73185 3.27032
RightFoot  -7.82746 -0.200323 4.79071
RightToes  0.000482159 0.542163 -0.142577
Spine  8.87174 -0.687121 -1.2774
Spine1  0.156665 -0.578176 -0.885973
HEad  13.0315 -8.71276 -0.00618778
LeftShoulder1  1.38173 -2.61731 -15.6961
LeftArm  -27.3704 17.0872 -12.9959
LeftForeArm  3.23512 -5.49469 1.88108
LeftHand  -0.25398 0.0180481 5.50724
RightShoulder  0.654331 0.284538 9.98648
RightArm  -20.8802 -10.1702 9.83172
RightForeArm  -7.78026 6.52798 3.53445
RightHand  -4.41686 12.4255 -28.6519
LeftUpLeg  4.42617 6.6942 0.232601
LeftLeg  8.46296 21.4176 -1.22953
LeftFoot  -11.4205 0.066852 -2.22856
LeftToes  1.06247e-005 4.65854e-005 -8.18501e-006
17
root  0.511872 40.6011 -2.25029 -166.029 -83.7198 160.933
RightUpLeg  3.55812 -12.151 -10.4232
RightLeg  11.1074 3.7242 2.63718
RightFoot  -8.63846 -0.178091 5.01138
RightToes  0.000482159 0.542163 -0.142577
Spine  8.41938 -0.712279 -1.2714
Spine1  0.870419 -0.578792 -1.0826
HEad  14.8299 -9.49868 0.11498
LeftShoulder1  1.54977 -2.94758 -17.2761
LeftArm  -28.782 17.6601 -13.8777
LeftForeArm  4.51488 -7.24811 2.06392
LeftHand  -0.25398 0.0180481 5.50724
RightShoulder  0.748966 0.554636 11.2979
RightArm  -21.1405 -12.0591 11.3326
RightForeArm  -7.74768 7.53013 3.55013
RightHand  -4.36959 12.3338 -28.5006
LeftUpLeg  4.6093 6.8294 -0.26251
LeftLeg  9.34354 20.523 -0.831554
LeftFoot  -12.5134 0.048516 -2.56712
LeftToes  1.06247e-005 4.65854e-005 -8.18501e-006
18
root  0.256622 40.456 -2.01317 -163.33 -83.9952 157.963
RightUpLeg  2.71688 -12.3061 -10.6117
RightLeg  14.0242 3.56604 1.57428
RightFoot  -9.86972 -0.127907 4.82801
RightToes  0.000482159 0.542163 -0.142577
Spine  8.21846 -0.60237 -1.51911
Spine1  1.52889 -0.491208 -1.23407
HEad  16.3198 -10.3094 0.364835
LeftShoulder1  1.67827 -3.1369 -18.6273
LeftArm  -29.7334 18.2648 -15.4718
LeftForeArm  5.19748 -8.42395 2.10796
LeftHand  -0.25398 0.0180481 5.50724
RightShoulder  0.900805 1.00225 12.9898
RightArm  -21.3319 -13.8959 12.8809
RightForeArm  -6.91744 8.14057 3.47743
RightHand  -4.32065 12.2885 -28.2675
LeftUpLeg  4.74805 7.26108 -0.747293
LeftLeg  10.5495 19.5283 -0.492927
LeftFoot  -13.6784 0.0185708 -3.10073
LeftToes  1.06247e-005 4.65854e-005 -8.18501e-006
19
root  0.0308851 40.2424 -1.77704 -160.658 -83.7065 154.805
RightUpLeg  0.761549 -9.75097 -10.7466
RightLeg  18.938 1.74841 0.376173
RightFoot  -10.8643 -0.0985679 6.1151
RightToes  0.000482159 0.542163 -0.142577
Spine  8.64411 -0.294126 -2.24627
Spine1  2.02401 -0.302583 -1.31182
HEad  17.1358 -10.8547 0.634175
LeftShoulder1  1.74548 -3.13032 -19.738
LeftArm  -29.7163 18.9829 -17.5799
LeftForeArm  5.60755 -8.95503 1.89272
LeftHand  -0.25398 0.0180481 5.50724
RightShoulder  1.12233 1.62252 15.0893
RightArm  -21.4692 -15.4162 14.4378
RightForeArm  -6.27904 8.4511 3.40927
RightHand  -4.29626 12.257 -28.1641
LeftUpLeg  4.86256 8.04727 -1.3346
LeftLeg  12.3244 18.7111 -0.0766055
LeftFoot  -15.0372 -0.0199038 -3.41817
LeftToes  1.06247e-005 4.65854e-005 -8.18501e-006
20
root  -0.175147 40.0024 -1.54084 -159.162 -82.8759 152.533
RightUpLeg  -2.29101 -5.46552 -11.1425
RightLeg  26.0657 -1.46421 -1.0164
RightFoot  -10.1692 -0.165779 8.79511
RightToes  0.000482159 0.542163 -0.142577
Spine  9.67911 0.166168 -3.17438
Spine1  2.63255 -0.0152895 -1.37384
HEad  17.0992 -11.0902 0.778919
LeftShoulder1  1.77478 -2.96462 -20.9331
LeftArm  -28.8937 19.6364 -19.9217
LeftForeArm  5.91851 -8.95227 1.47965
LeftHand  -0.25398 0.0180481 5.50724
RightShoulder  1.36552 2.18519 17.4005
RightArm  -21.54 -16.4538 16.2471
RightForeArm  -5.96281 8.74535 3.43273
RightHand  -4.30052 12.2311 -28.2293
LeftUpLeg  5.18543 8.98962 -2.10883
LeftLeg  14.2641 18.3711 0.494911
LeftFoot  -16.3892 -0.0457392 -3.27307
LeftToes  1.06247e-005 4.65854e-005 -8.18501e-006
21
root  -0.419679 39.8161 -1.29191 -159.981 -81.7459 152.474
RightUpLeg  -6.17598 -2.80098 -11.4748
RightLeg  34.3996 -4.03917 -3.22884
RightFoot  -7.03731 -0.420844 10.0739
RightToes  0.000482159 0.542163 -0.142577
Spine  10.7724 0.619186 -3.69356
Spine1  3.63568 0.335444 -1.41274
HEad  16.5181 -11.0237 0.689112
LeftShoulder1  1.83677 -2.83134 -22.5701
LeftArm  -27.8892 20.1306 -22.3097
LeftForeArm  5.74616 -8.4721 1.08527
LeftHand  -0.25398 0.0180481 5.50724
RightShoulder  1.61297 2.6813 19.6379
RightArm  -21.549 -17.1904 18.5557
RightForeArm  -5.27772 9.1433 3.51532
RightHand  -4.33596 12.304 -28.3387
LeftUpLeg  6.0019 9.77963 -2.89712
LeftLeg  15.4502 18.6834 1.01672
LeftFoot  -17.3926 -0.0432689 -2.79091
LeftToes  1.06247e-005 4.65854e-005 -8.18501e-006
22
root  -0.75881 39.7038 -1.04192 -162.577 -80.5616 154.46
RightUpLeg  -10.4563 -1.97877 -11.2151
RightLeg  41.9301 -5.57841 -5.60276
RightFoot  -3.176 -0.615166 8.36406
RightToes  0.000482159 0.542163 -0.142577
Spine  11.3628 0.893109 -3.66103
Spine1  4.84241 0.620478 -1.45218
HEad  16.0725 -10.5329 0.358516
LeftShoulder1  2.00782 -2.94281 -24.8198
LeftArm  -27.074 20.8179 -24.5353
LeftForeArm  5.12242 -7.80591 0.810577
LeftHand  -0.25398 0.0180481 5.50724
RightShoulder  1.92586 3.33719 21.8479
RightArm  -21.5001 -17.8835 21.2478
RightForeArm  -3.94321 9.447 3.56923
RightHand  -4.35157 12.3947 -28.2983
LeftUpLeg  7.08531 10.1806 -3.47666
LeftLeg  15.7662 19.6248 1.30196
LeftFoot  -18.1115 -0.0279585 -2.30708
LeftToes  1.06247e-005 4.65854e-005 -8.18501e-006
23
root  -1.20008 39.6508 -0.810823 -166.106 -79.5975 157.844
RightUpLeg  -14.3523 -2.87795 -10.0488
RightLeg  46.3384 -5.54071 -6.48151
RightFoot  -1.14876 -0.529731 5.79485
RightToes  0.000482159 0.542163 -0.142577
Spine  11.4374 0.857852 -3.24559
Spine1  5.79007 0.64361 -1.45673
HEad  16.237 -9.58741 -0.118853
LeftShoulder1  2.32834 -3.35259 -27.7337
LeftArm  -26.4236 22.1119 -26.3517
LeftForeArm  5.03962 -7.56982 0.576534
LeftHand  -0.25398 0.0180481 5.50724
RightShoulder  2.3225 4.13388 24.2417
RightArm  -21.4185 -18.5366 24.0915
RightForeArm  -2.43388 9.44354 3.57407
RightHand  -4.26967 12.234 -28.0331
LeftUpLeg  8.1041 10.083 -3.68308
LeftLeg  15.5423 20.9307 1.28088
LeftFoot  -18.7405 -0.0226876 -2.08668
LeftToes  1.06247e-005 4.65854e-005 -8.18501e-006
24
root  -1.7172 39.631 -0.60707 -169.846 -79.0406 161.785
RightUpLeg  -17.2515 -5.1187 -8.03719
RightLeg  46.5212 -4.59643 -5.50606
RightFoot  -1.1364 -0.474697 5.22852
RightToes  0.000482159 0.542163 -0.142577
Spine  11.3948 0.526852 -2.73692
Spine1  6.28458 0.312135 -1.24583
HEad  16.8979 -8.46179 -0.631379
LeftShoulder1  2.78686 -3.96804 -31.1427
LeftArm  -25.8929 23.8242 -27.8581
LeftForeArm  6.00627 -7.84438 0.348584
LeftHand  -0.25398 0.0180481 5.50724
RightShoulder  2.68998 4.7344 26.5987
RightArm  -21.3907 -19.1314 27.2436
RightForeArm  -1.24359 9.22466 3.57393
RightHand  -4.1361 11.859 -27.7621
LeftUpLeg  9.00958 9.62201 -3.54868
LeftLeg  15.0469 22.1498 1.02448
LeftFoot  -19.3312 -0.0379652 -2.20153
LeftToes  1.06247e-005 4.65854e-005 -8.18501e-006
25
root  -2.29522 39.5936 -0.43927 -172.832 -78.7818 165.086
RightUpLeg  -19.1616 -8.12477 -5.52509
RightLeg  43.0421 -3.92841 -4.211
RightFoot  -1.51987 -0.573189 6.54037
RightToes  0.000482159 0.542163 -0.142577
Spine  11.469 0.0999049 -2.57112
Spine1  6.5277 -0.253222 -0.681796
HEad  17.5531 -7.49472 -1.07592
LeftShoulder1  3.31458 -4.65633 -34.4706
LeftArm  -25.4909 25.2519 -29.6525
LeftForeArm  6.78309 -7.70323 0.189839
LeftHand  -0.25398 0.0180481 5.50724
RightShoulder  2.9182 4.98274 28.3854
RightArm  -21.4456 -19.8696 31.0529
RightForeArm  -0.46755 9.00114 3.62212
RightHand  -4.11002 11.7135 -27.8167
LeftUpLeg  9.82914 9.08646 -3.36997
LeftLeg  14.6555 23.0489 0.765952
LeftFoot  -19.8998 -0.064335 -2.455
LeftToes  1.06247e-005 4.65854e-005 -8.18501e-006
26
root  -2.9408 39.5159 -0.311131 -174.612 -78.6001 167.179
RightUpLeg  -20.4209 -11.4234 -2.72054
RightLeg  37.1517 -4.11817 -3.58992
RightFoot  -1.68708 -0.649337 7.54006
RightToes  0.000482159 0.542163 -0.142577
Spine  11.5782 -0.270223 -2.89326
Spine1  6.86617 -0.876965 0.179586
HEad  17.7409 -6.75368 -1.3107
LeftShoulder1  3.823 -5.31677 -37.1409
LeftArm  -25.1419 25.8962 -32.1453
LeftForeArm  5.93522 -6.41118 0.0859487
LeftHand  -0.25398 0.0180481 5.50724
RightShoulder  3.06708 5.13086 29.5408
RightArm  -21.3435 -20.8261 35.355
RightForeArm  0.0832025 8.72699 3.76678
RightHand  -4.22678 11.9634 -28.1751
LeftUpLeg  10.6524 8.60784 -3.38645
LeftLeg  14.4664 23.8274 0.637897
LeftFoot  -20.4482 -0.0830491 -2.58382
LeftToes  1.06247e-005 4.65854e-005 -8.18501e-006
27
root  -3.66021 39.3919 -0.220016 -175.116 -78.4673 167.926
RightUpLeg  -21.1843 -14.9444 0.187909
RightLeg  29.7964 -4.12671 -2.80822
RightFoot  -2.08438 -0.647852 7.81654
RightToes  0.000482159 0.542163 -0.142577
Spine  11.6311 -0.621616 -3.59623
Spine1  7.55063 -1.54519 1.14126
HEad  17.3124 -6.14319 -1.24245
LeftShoulder1  4.30033 -5.95753 -39.1704
LeftArm  -24.8073 25.8186 -34.8944
LeftForeArm  4.19547 -4.65767 -0.0562484
LeftHand  -0.25398 0.0180481 5.50724
RightShoulder  3.27859 5.46915 30.5733
RightArm  -20.6601 -21.7091 39.4238
RightForeArm  0.895209 8.23164 4.04324
RightHand  -4.31447 12.1757 -28.4012
LeftUpLeg  11.6059 8.21755 -3.61489
LeftLeg  14.3942 24.5121 0.569192
LeftFoot  -21.1813 -0.109656 -2.74636
LeftToes  1.06247e-005 4.65854e-005 -8.18501e-006
28
root  -4.45653 39.2159 -0.156938 -174.173 -78.5587 167.107
RightUpLeg  -21.5477 -19.1882 3.06616
RightLeg  21.7072 -2.2732 -1.36281
RightFoot  -2.55769 -0.656822 8.30854
RightToes  0.000482159 0.542163 -0.142577
Spine  11.6289 -1.04409 -4.53088
Spine1  8.60736 -2.32447 2.0799
HEad  16.4724 -5.72679 -0.990824
LeftShoulder1  4.80102 -6.64889 -40.9152
LeftArm  -24.5099 25.3235 -37.0485
LeftForeArm  3.80363 -3.74544 -0.276385
LeftHand  -0.25398 0.0180481 5.50724
RightShoulder  3.56455 5.95098 31.7505
RightArm  -19.1335 -22.3132 42.7085
RightForeArm  2.76811 7.70326 4.47518
RightHand  -4.19482 11.9043 -28.0636
LeftUpLeg  12.8228 7.94181 -3.98251
LeftLeg  14.2661 24.7575 0.361274
LeftFoot  -22.2261 -0.171016 -3.19149
LeftToes  1.06247e-005 4.65854e-005 -8.18501e-006
